#!OML:ASF E:\motion texture\Top Level 1\Subject 1\Session 1\male.ASF
:FULLY-SPECIFIED
:DEGREES
341
root 8.90334 17.9449 5.20497 8.62847 -83.8556 -3.3616
lowerback -2.53588 1.13519 -1.0525
upperback -4.30738 1.47443 1.55602
thorax -3.07602 0.76279 2.18903
lowerneck -4.16061 -0.20219 -6.97161
upperneck -17.5822 0.366539 8.86592
head -4.56844 -0.060738 3.95011
rclavicle -8.10048e-015 -3.57812e-015
rhumerus 35.9496 9.16447 -75.8813
rradius 84.2522
rwrist -25.5273
rhand -9.17306 -32.8685
rfingers 7.12502
rthumb 16.7798 -62.1634
lclavicle -8.10048e-015 -3.57812e-015
lhumerus 53.3809 9.17927 72.6213
lradius 52.4976
lwrist 5.78021
lhand -18.9368 32.9499
lfingers 7.12502
lthumb 7.36612 62.8017
rfemur -30.829 -11.3266 19.0273
rtibia 46.5659
rfoot -4.31548 -18.5175
rtoes 9.18733
lfemur -4.87004 -5.43766 -21.4208
ltibia 16.1028
lfoot -11.6672 1.52489
ltoes -2.61679
342
root 8.78502 17.9423 5.19889 7.9029 -83.4641 -2.53529
lowerback -2.51527 1.14916 -1.10871
upperback -4.30822 1.49372 1.53601
thorax -3.09043 0.774329 2.19942
lowerneck -4.17199 -0.2332 -6.97387
upperneck -17.4993 0.322964 8.8245
head -4.53794 -0.0762149 3.93643
rclavicle 2.39536e-014 -7.95139e-016
rhumerus 36.3424 9.51055 -75.933
rradius 83.3235
rwrist -25.7159
rhand -9.01457 -33.0606
rfingers 7.12502
rthumb 16.9324 -62.3425
lclavicle 2.39536e-014 -7.95139e-016
lhumerus 53.4868 8.77564 72.7478
lradius 52.6433
lwrist 5.92686
lhand -18.7261 32.979
lfingers 7.12502
lthumb 7.56949 62.8235
rfemur -31.2029 -11.4407 18.9541
rtibia 44.9436
rfoot -4.60855 -18.5803
rtoes 9.02631
lfemur -4.52605 -5.47056 -21.4311
ltibia 16.0207
lfoot -11.8626 1.26248
ltoes -2.88856
343
root 8.66626 17.9392 5.19191 7.25939 -83.075 -1.78654
lowerback -2.49988 1.16492 -1.16398
upperback -4.30776 1.51532 1.51369
thorax -3.10059 0.786913 2.20699
lowerneck -4.19707 -0.26721 -6.97739
upperneck -17.395 0.275819 8.78453
head -4.49836 -0.0928487 3.92303
rclavicle -3.13831e-014 -1.35174e-014
rhumerus 36.7413 9.85361 -75.9966
rradius 82.3908
rwrist -25.917
rhand -8.86959 -33.2627
rfingers 7.12502
rthumb 17.072 -62.5326
lclavicle -3.13831e-014 -1.35174e-014
lhumerus 53.5847 8.36593 72.888
lradius 52.7958
lwrist 6.07814
lhand -18.5174 33.0191
lfingers 7.12502
lthumb 7.77095 62.8563
rfemur -31.5381 -11.5261 18.8674
rtibia 43.2835
rfoot -4.85619 -18.6322
rtoes 8.84889
lfemur -4.19435 -5.50609 -21.4336
ltibia 15.9523
lfoot -12.0528 0.999231
ltoes -3.17238
344
root 8.54699 17.9354 5.18407 6.69502 -82.6901 -1.11309
lowerback -2.48869 1.18333 -1.21615
upperback -4.30819 1.54033 1.48875
thorax -3.10933 0.801037 2.21016
lowerneck -4.22766 -0.303644 -6.98088
upperneck -17.2706 0.225677 8.74576
head -4.45152 -0.11055 3.90965
rclavicle 1.77664e-014 6.36111e-015
rhumerus 37.1391 10.194 -76.0736
rradius 81.4557
rwrist -26.1297
rhand -8.73545 -33.4733
rfingers 7.12502
rthumb 17.2011 -62.732
lclavicle 1.77664e-014 6.36111e-015
lhumerus 53.6689 7.94848 73.044
lradius 52.9572
lwrist 6.23469
lhand -18.3128 33.0728
lfingers 7.12502
lthumb 7.96844 62.9026
rfemur -31.8354 -11.5812 18.7687
rtibia 41.5975
rfoot -5.05651 -18.6803
rtoes 8.66264
lfemur -3.87454 -5.54403 -21.4271
ltibia 15.899
lfoot -12.2376 0.736576
ltoes -3.47552
345
root 8.42708 17.9312 5.17539 6.19561 -82.3095 -0.501779
lowerback -2.47581 1.20442 -1.2654
upperback -4.31508 1.56868 1.46134
thorax -3.12576 0.816738 2.20901
lowerneck -4.25415 -0.341889 -6.98408
upperneck -17.1246 0.173011 8.70729
head -4.39859 -0.12912 3.89594
rclavicle 4.34841e-014 4.77083e-015
rhumerus 37.5241 10.5355 -76.1666
rradius 80.5201
rwrist -26.3534
rhand -8.60829 -33.6945
rfingers 7.12502
rthumb 17.3235 -62.9425
lclavicle 4.34841e-014 4.77083e-015
lhumerus 53.7258 7.52106 73.2146
lradius 53.1305
lwrist 6.39631
lhand -18.1113 33.1442
lfingers 7.12502
lthumb 8.16291 62.9665
rfemur -32.0949 -11.6068 18.6582
rtibia 39.898
rfoot -5.21619 -18.7307
rtoes 8.45188
lfemur -3.5652 -5.58507 -21.412
ltibia 15.861
lfoot -12.4166 0.474687
ltoes -3.79416
346
root 8.3064 17.9265 5.16587 5.7526 -81.9347 0.0551186
lowerback -2.47384 1.22696 -1.31248
upperback -4.31411 1.5991 1.43347
thorax -3.12794 0.833271 2.20647
lowerneck -4.30654 -0.382505 -6.98906
upperneck -16.9547 0.117639 8.6681
head -4.33395 -0.148194 3.88181
rclavicle 1.99282e-014 3.97569e-016
rhumerus 37.9191 10.8777 -76.27
rradius 79.5858
rwrist -26.5927
rhand -8.49734 -33.9223
rfingers 7.12502
rthumb 17.4302 -63.1608
lclavicle 1.99282e-014 3.97569e-016
lhumerus 53.7749 7.09483 73.4047
lradius 53.3144
lwrist 6.56159
lhand -17.9121 33.2314
lfingers 7.12502
lthumb 8.35512 63.0461
rfemur -32.3167 -11.6002 18.5357
rtibia 38.197
rfoot -5.34287 -18.7888
rtoes 8.2288
lfemur -3.26548 -5.62885 -21.3883
ltibia 15.8389
lfoot -12.59 0.212811
ltoes -4.13065
